<?xml version="1.0" encoding="UTF-8"?>
<svg width="34px" height="32px" viewBox="0 0 34 32" version="1.1" xmlns="http://www.w3.org/2000/svg" xmlns:xlink="http://www.w3.org/1999/xlink">
    <!-- Generator: Sketch 61.2 (89653) - https://sketch.com -->
    <title>metamask</title>
    <desc>Created with Sketch.</desc>
    <g id="metamask" stroke="none" stroke-width="1" fill="none" fill-rule="evenodd" stroke-linecap="round" stroke-linejoin="round">
        <g id="mm-logo" fill-rule="nonzero" stroke-width="0.25">
            <polygon id="Path" stroke="#E17726" fill="#E17726" points="31.9583 0 18.8242 9.7183 21.2666 3.99099"></polygon>
            <polygon id="Path" stroke="#E27625" fill="#E27625" points="1.66284 0 14.68 9.809 12.3546 3.99098"></polygon>
            <polygon id="Path" stroke="#E27625" fill="#E27625" points="27.2292 22.5334 23.7346 27.872 31.2175 29.9323 33.3611 22.6501"></polygon>
            <polygon id="Path" stroke="#E27625" fill="#E27625" points="0.27271 22.6501 2.40325 29.9323 9.8732 27.872 6.39154 22.5334"></polygon>
            <polygon id="Path" stroke="#E27625" fill="#E27625" points="9.4704 13.5149 7.39185 16.6507 14.7968 16.9876 14.55 9.0186"></polygon>
            <polygon id="Path" stroke="#E27625" fill="#E27625" points="24.1503 13.515 18.9929 8.92798 18.824 16.9877 26.2289 16.6508"></polygon>
            <polygon id="Path" stroke="#E27625" fill="#E27625" points="9.8733 27.872 14.3552 25.7081 10.4969 22.7019"></polygon>
            <polygon id="Path" stroke="#E27625" fill="#E27625" points="19.2659 25.7081 23.7348 27.872 23.1242 22.7019"></polygon>
            <polygon id="Path" stroke="#D5BFB2" fill="#D5BFB2" points="23.7348 27.8722 19.2659 25.7083 19.6296 28.6108 19.5906 29.8418"></polygon>
            <polygon id="Path" stroke="#D5BFB2" fill="#D5BFB2" points="9.8733 27.8722 14.0305 29.8418 14.0045 28.6108 14.3552 25.7083"></polygon>
            <polygon id="Path" stroke="#233447" fill="#233447" points="14.1083 20.7842 10.3928 19.6958 13.017 18.4907"></polygon>
            <polygon id="Path" stroke="#233447" fill="#233447" points="19.5127 20.7842 20.604 18.4907 23.2412 19.6958"></polygon>
            <polygon id="Path" stroke="#CC6228" fill="#CC6228" points="9.8732 27.872 10.5228 22.5334 6.3916 22.6501"></polygon>
            <polygon id="Path" stroke="#CC6228" fill="#CC6228" points="23.0981 22.5334 23.7347 27.872 27.2293 22.6501"></polygon>
            <polygon id="Path" stroke="#CC6228" fill="#CC6228" points="26.2289 16.6506 18.824 16.9875 19.5125 20.7842 20.6038 18.4906 23.241 19.6957"></polygon>
            <polygon id="Path" stroke="#CC6228" fill="#CC6228" points="10.3928 19.6957 13.017 18.4906 14.1083 20.7842 14.7968 16.9875 7.39185 16.6506"></polygon>
            <polygon id="Path" stroke="#E27525" fill="#E27525" points="7.39209 16.6506 10.497 22.7019 10.393 19.6957"></polygon>
            <polygon id="Path" stroke="#E27525" fill="#E27525" points="23.2412 19.6957 23.1243 22.7019 26.2292 16.6506"></polygon>
            <polygon id="Path" stroke="#E27525" fill="#E27525" points="14.7972 16.9875 14.1086 20.7842 14.979 25.2675 15.1739 19.3588"></polygon>
            <polygon id="Path" stroke="#E27525" fill="#E27525" points="18.8242 16.9875 18.4604 19.3459 18.6423 25.2675 19.5127 20.7842"></polygon>
            <polygon id="Path" stroke="#F5841F" fill="#F5841F" points="19.5127 20.7843 18.6423 25.2676 19.2659 25.7082 23.1243 22.702 23.2412 19.6958"></polygon>
            <polygon id="Path" stroke="#F5841F" fill="#F5841F" points="10.3928 19.6958 10.4968 22.702 14.3551 25.7082 14.9787 25.2676 14.1083 20.7843"></polygon>
            <polygon id="Path" stroke="#C0AC9D" fill="#C0AC9D" points="19.5907 29.8417 19.6296 28.6107 19.2919 28.3256 14.3293 28.3256 14.0045 28.6107 14.0305 29.8417 9.8733 27.8721 11.3283 29.0642 14.2773 31.0986 19.3308 31.0986 22.2928 29.0642 23.7348 27.8721"></polygon>
            <polygon id="Path" stroke="#161616" fill="#161616" points="19.2658 25.7081 18.6422 25.2676 14.9787 25.2676 14.3552 25.7081 14.0044 28.6107 14.3292 28.3256 19.2918 28.3256 19.6296 28.6107"></polygon>
            <polygon id="Path" stroke="#763E1A" fill="#763E1A" points="32.5168 10.3532 33.6211 4.98873 31.9582 0 19.2659 9.3944 24.1505 13.5149 31.0488 15.5234 32.5688 13.7482 31.9063 13.2687 32.9585 12.3099 32.1531 11.6879 33.2054 10.8845"></polygon>
            <polygon id="Path" stroke="#763E1A" fill="#763E1A" points="0 4.98873 1.11724 10.3532 0.40273 10.8845 1.468 11.6879 0.66255 12.3099 1.71483 13.2687 1.05228 13.7482 2.57225 15.5234 9.4706 13.5149 14.3552 9.3944 1.66287 0"></polygon>
            <polygon id="Path" stroke="#F5841F" fill="#F5841F" points="31.0489 15.5233 24.1506 13.5149 26.2292 16.6507 23.1243 22.7019 27.2295 22.6501 33.3613 22.6501"></polygon>
            <polygon id="Path" stroke="#F5841F" fill="#F5841F" points="9.4704 13.5149 2.57214 15.5233 0.27271 22.6501 6.39154 22.6501 10.4967 22.7019 7.39186 16.6507"></polygon>
            <polygon id="Path" stroke="#F5841F" fill="#F5841F" points="18.8241 16.9876 19.2658 9.3943 21.2664 3.99097 12.3545 3.99097 14.3551 9.3943 14.7968 16.9876 14.9657 19.3718 14.9787 25.2676 18.6422 25.2676 18.6552 19.3718"></polygon>
        </g>
    </g>
</svg>