<?xml version="1.0" encoding="UTF-8"?>
<svg width="2800px" height="760px" viewBox="0 0 2800 760" version="1.1" xmlns="http://www.w3.org/2000/svg" xmlns:xlink="http://www.w3.org/1999/xlink">
    <!-- Generator: Sketch 61.2 (89653) - https://sketch.com -->
    <title>pentas-logo-text</title>
    <desc>Created with Sketch.</desc>
    <defs>
        <path d="M236.901052,0 C356.428401,0 452.000747,102.492352 452.268826,236.66127 C452.530543,370.830188 354.123108,474.334999 236.901052,474.438866 L0,474.438866 L0,73.900135 C-4.99826335e-15,33.0862174 33.0862174,3.59191045e-14 73.900135,0 L236.901052,0 L236.901052,0 Z" id="path-1"></path>
        <linearGradient x1="87.6418405%" y1="0%" x2="12.3581595%" y2="100%" id="linearGradient-3">
            <stop stop-color="#15DAF4" offset="0%"></stop>
            <stop stop-color="#58068D" offset="100%"></stop>
        </linearGradient>
        <path d="M198.052362,0.00677791702 L198.052362,205.442375 C198.052362,238.093509 171.583388,264.562483 138.932254,264.562483 L133.518446,264.562483 L133.518446,264.562483 C65.2104091,264.297927 0,206.300703 0,132.284631 C0,58.2685581 58.5411627,-0.727364165 133.518446,0.00677791702 L198.052362,0.00677791702 Z" id="path-4"></path>
        <linearGradient x1="91.2893415%" y1="0%" x2="8.71065855%" y2="100%" id="linearGradient-6">
            <stop stop-color="#15DAF4" offset="0%"></stop>
            <stop stop-color="#58068D" offset="100%"></stop>
        </linearGradient>
    </defs>
    <g id="pentas-logo-text" stroke="none" stroke-width="1" fill="none" fill-rule="evenodd">
        <g id="Group" transform="translate(0.000000, 11.000000)">
            <g id="Group-4">
                <g id="Rectangle" transform="translate(198.052362, 0.000000)">
                    <mask id="mask-2" fill="white">
                        <use xlink:href="#path-1"></use>
                    </mask>
                    <use id="Mask" fill="#FFFFFF" xlink:href="#path-1"></use>
                    <rect fill="url(#linearGradient-3)" mask="url(#mask-2)" x="-192.879352" y="0" width="644.409177" height="742.696356"></rect>
                </g>
                <g id="Rectangle" transform="translate(0.000000, 474.438866)">
                    <mask id="mask-5" fill="white">
                        <use xlink:href="#path-4"></use>
                    </mask>
                    <use id="Mask" fill="#FFFFFF" xlink:href="#path-4"></use>
                    <rect fill="url(#linearGradient-6)" mask="url(#mask-5)" x="0" y="-469.265857" width="666.850461" height="733.82834"></rect>
                </g>
            </g>
        </g>
        <path d="M921.5,582.72 L921.5,473.94 C939.14,494.1 963.08,504.18 993.32,504.18 C1015.16,504.18 1034.69,499.42 1051.91,489.9 C1069.13,480.38 1082.64,466.87 1092.44,449.37 C1102.24,431.87 1107.14,411.78 1107.14,389.1 C1107.14,366.42 1102.24,346.4 1092.44,329.04 C1082.64,311.68 1069.13,298.24 1051.91,288.72 C1034.69,279.2 1015.16,274.44 993.32,274.44 C977.92,274.44 963.85,277.1 951.11,282.42 C938.37,287.74 927.66,295.72 918.98,306.36 L918.98,306.36 L918.98,276.96 L869,276.96 L869,582.72 L921.5,582.72 Z M987.44,459.24 C974.84,459.24 963.5,456.37 953.42,450.63 C943.34,444.89 935.36,436.7 929.48,426.06 C923.6,415.42 920.66,403.1 920.66,389.1 C920.66,375.1 923.6,362.78 929.48,352.14 C935.36,341.5 943.34,333.31 953.42,327.57 C963.5,321.83 974.84,318.96 987.44,318.96 C1006.76,318.96 1022.65,325.4 1035.11,338.28 C1047.57,351.16 1053.8,368.1 1053.8,389.1 C1053.8,410.1 1047.57,427.04 1035.11,439.92 C1022.65,452.8 1006.76,459.24 987.44,459.24 Z M1262.54,504.18 C1281.86,504.18 1299.22,501.1 1314.62,494.94 C1330.02,488.78 1342.76,479.68 1352.84,467.64 L1352.84,467.64 L1324.7,435.3 C1308.74,451.54 1288.44,459.66 1263.8,459.66 C1244.48,459.66 1228.31,454.83 1215.29,445.17 C1202.27,435.51 1194.22,422.42 1191.14,405.9 L1191.14,405.9 L1367.12,405.9 C1367.68,399.18 1367.96,394 1367.96,390.36 C1367.96,367.4 1363.13,347.17 1353.47,329.67 C1343.81,312.17 1330.37,298.59 1313.15,288.93 C1295.93,279.27 1276.4,274.44 1254.56,274.44 C1232.44,274.44 1212.56,279.34 1194.92,289.14 C1177.28,298.94 1163.49,312.59 1153.55,330.09 C1143.61,347.59 1138.64,367.26 1138.64,389.1 C1138.64,411.22 1143.75,431.03 1153.97,448.53 C1164.19,466.03 1178.68,479.68 1197.44,489.48 C1216.2,499.28 1237.9,504.18 1262.54,504.18 Z M1317.98,371.04 L1190.72,371.04 C1193.24,354.52 1200.31,341.29 1211.93,331.35 C1223.55,321.41 1237.76,316.44 1254.56,316.44 C1271.64,316.44 1285.92,321.48 1297.4,331.56 C1308.88,341.64 1315.74,354.8 1317.98,371.04 L1317.98,371.04 Z M1470.86,501.24 L1470.86,387.84 C1470.86,366 1476.46,349.27 1487.66,337.65 C1498.86,326.03 1514.12,320.22 1533.44,320.22 C1550.52,320.22 1563.68,325.19 1572.92,335.13 C1582.16,345.07 1586.78,359.84 1586.78,379.44 L1586.78,379.44 L1586.78,501.24 L1639.28,501.24 L1639.28,372.72 C1639.28,340.24 1630.74,315.74 1613.66,299.22 C1596.58,282.7 1573.9,274.44 1545.62,274.44 C1529.1,274.44 1514.26,277.1 1501.1,282.42 C1487.94,287.74 1477.02,295.58 1468.34,305.94 L1468.34,305.94 L1468.34,276.96 L1418.36,276.96 L1418.36,501.24 L1470.86,501.24 Z M1790.48,504.18 C1800.28,504.18 1809.59,502.92 1818.41,500.4 C1827.23,497.88 1834.72,494.1 1840.88,489.06 L1840.88,489.06 L1826.18,451.68 C1818.34,457.84 1808.54,460.92 1796.78,460.92 C1786.7,460.92 1779,458.05 1773.68,452.31 C1768.36,446.57 1765.7,438.24 1765.7,427.32 L1765.7,427.32 L1765.7,320.64 L1825.76,320.64 L1825.76,278.64 L1765.7,278.64 L1765.7,227.4 L1713.2,227.4 L1713.2,278.64 L1676.24,278.64 L1676.24,320.64 L1713.2,320.64 L1713.2,428.58 C1713.2,453.22 1719.92,471.98 1733.36,484.86 C1746.8,497.74 1765.84,504.18 1790.48,504.18 Z M1951.76,504.18 C1968.56,504.18 1982.91,501.59 1994.81,496.41 C2006.71,491.23 2015.88,483.74 2022.32,473.94 L2022.32,473.94 L2022.32,501.24 L2071.88,501.24 L2071.88,369.78 C2071.88,337.86 2063.13,313.99 2045.63,298.17 C2028.13,282.35 2002.86,274.44 1969.82,274.44 C1951.34,274.44 1933.84,276.82 1917.32,281.58 C1900.8,286.34 1886.66,293.2 1874.9,302.16 L1874.9,302.16 L1895.48,340.38 C1903.88,333.38 1914.17,327.92 1926.35,324 C1938.53,320.08 1950.92,318.12 1963.52,318.12 C1982,318.12 1995.93,322.32 2005.31,330.72 C2014.69,339.12 2019.38,351.16 2019.38,366.84 L2019.38,366.84 L2019.38,370.2 L1961.42,370.2 C1929.22,370.2 1905.63,376.29 1890.65,388.47 C1875.67,400.65 1868.18,416.82 1868.18,436.98 C1868.18,449.86 1871.61,461.41 1878.47,471.63 C1885.33,481.85 1895.06,489.83 1907.66,495.57 C1920.26,501.31 1934.96,504.18 1951.76,504.18 Z M1962.68,465.96 C1949.24,465.96 1938.74,463.16 1931.18,457.56 C1923.62,451.96 1919.84,444.4 1919.84,434.88 C1919.84,415 1934.96,405.06 1965.2,405.06 L1965.2,405.06 L2019.38,405.06 L2019.38,431.1 C2015.18,442.3 2007.97,450.91 1997.75,456.93 C1987.53,462.95 1975.84,465.96 1962.68,465.96 Z M2208.38,504.18 C2239.74,504.18 2264.52,497.88 2282.72,485.28 C2300.92,472.68 2310.02,455.88 2310.02,434.88 C2310.02,418.92 2305.89,406.6 2297.63,397.92 C2289.37,389.24 2279.5,383.08 2268.02,379.44 C2256.54,375.8 2241.84,372.58 2223.92,369.78 C2206,366.7 2192.77,363.41 2184.23,359.91 C2175.69,356.41 2171.42,350.46 2171.42,342.06 C2171.42,334.5 2175.41,328.41 2183.39,323.79 C2191.37,319.17 2203.06,316.86 2218.46,316.86 C2242.26,316.86 2263.68,322.46 2282.72,333.66 L2282.72,333.66 L2302.88,293.76 C2293.08,287.88 2280.48,283.19 2265.08,279.69 C2249.68,276.19 2234.28,274.44 2218.88,274.44 C2188.64,274.44 2164.63,280.81 2146.85,293.55 C2129.07,306.29 2120.18,323.3 2120.18,344.58 C2120.18,360.82 2124.45,373.49 2132.99,382.59 C2141.53,391.69 2151.61,398.06 2163.23,401.7 C2174.85,405.34 2189.9,408.56 2208.38,411.36 C2226.02,414.16 2238.83,417.1 2246.81,420.18 C2254.79,423.26 2258.78,428.72 2258.78,436.56 C2258.78,453.08 2243.1,461.34 2211.74,461.34 C2198.02,461.34 2184.09,459.31 2169.95,455.25 C2155.81,451.19 2143.7,445.8 2133.62,439.08 L2133.62,439.08 L2113.46,478.98 C2123.82,486.26 2137.68,492.28 2155.04,497.04 C2172.4,501.8 2190.18,504.18 2208.38,504.18 Z M2372.18,504.18 C2381.7,504.18 2389.82,500.89 2396.54,494.31 C2403.26,487.73 2406.62,479.4 2406.62,469.32 C2406.62,458.96 2403.33,450.56 2396.75,444.12 C2390.17,437.68 2381.98,434.46 2372.18,434.46 C2362.38,434.46 2354.19,437.68 2347.61,444.12 C2341.03,450.56 2337.74,458.96 2337.74,469.32 C2337.74,479.4 2341.1,487.73 2347.82,494.31 C2354.54,500.89 2362.66,504.18 2372.18,504.18 Z M2484.32,240 C2494.12,240 2502.17,236.85 2508.47,230.55 C2514.77,224.25 2517.92,216.48 2517.92,207.24 C2517.92,198.56 2514.7,191.35 2508.26,185.61 C2501.82,179.87 2493.84,177 2484.32,177 C2474.8,177 2466.82,180.01 2460.38,186.03 C2453.94,192.05 2450.72,199.54 2450.72,208.5 C2450.72,217.46 2453.94,224.95 2460.38,230.97 C2466.82,236.99 2474.8,240 2484.32,240 Z M2510.36,501.24 L2510.36,276.96 L2457.86,276.96 L2457.86,501.24 L2510.36,501.24 Z M2680.04,504.18 C2703,504.18 2723.58,499.28 2741.78,489.48 C2759.98,479.68 2774.19,466.03 2784.41,448.53 C2794.63,431.03 2799.74,411.22 2799.74,389.1 C2799.74,366.98 2794.63,347.24 2784.41,329.88 C2774.19,312.52 2759.98,298.94 2741.78,289.14 C2723.58,279.34 2703,274.44 2680.04,274.44 C2657.36,274.44 2636.92,279.34 2618.72,289.14 C2600.52,298.94 2586.31,312.52 2576.09,329.88 C2565.87,347.24 2560.76,366.98 2560.76,389.1 C2560.76,411.22 2565.87,431.03 2576.09,448.53 C2586.31,466.03 2600.52,479.68 2618.72,489.48 C2636.92,499.28 2657.36,504.18 2680.04,504.18 Z M2680.04,459.24 C2660.72,459.24 2644.83,452.8 2632.37,439.92 C2619.91,427.04 2613.68,410.1 2613.68,389.1 C2613.68,368.1 2619.91,351.16 2632.37,338.28 C2644.83,325.4 2660.72,318.96 2680.04,318.96 C2699.36,318.96 2715.32,325.4 2727.92,338.28 C2740.52,351.16 2746.82,368.1 2746.82,389.1 C2746.82,410.1 2740.52,427.04 2727.92,439.92 C2715.32,452.8 2699.36,459.24 2680.04,459.24 Z" id="pentas.io" fill="#000000" fill-rule="nonzero"></path>
    </g>
</svg>